<?xml version="1.0" standalone="no"?>
<!DOCTYPE svg PUBLIC "-//W3C//DTD SVG 20010904//EN"
 "http://www.w3.org/TR/2001/REC-SVG-20010904/DTD/svg10.dtd">
<svg version="1.0" xmlns="http://www.w3.org/2000/svg"
 width="2400.000000pt" height="2400.000000pt" viewBox="0 0 2400.000000 2400.000000"
 preserveAspectRatio="xMidYMid meet">

<g transform="translate(0.000000,2400.000000) scale(0.100000,-0.100000)"
fill="#000000" stroke="none">
<path d="M10365 19130 c-3 -6 -16 -10 -29 -10 -12 0 -28 -6 -34 -12 -9 -9 -17
-10 -30 -2 -32 20 -321 5 -349 -18 -7 -6 -23 -8 -36 -4 -13 3 -39 1 -58 -5
-48 -15 -101 -17 -121 -5 -12 7 -21 6 -34 -5 -11 -9 -41 -14 -88 -14 -51 0
-70 -3 -69 -12 2 -7 -2 -13 -7 -13 -5 0 -10 8 -10 17 0 13 -3 14 -12 5 -7 -7
-37 -12 -67 -12 -41 0 -60 -5 -76 -20 -18 -17 -27 -19 -49 -10 -43 16 -58 13
-51 -10 6 -20 -5 -27 -19 -13 -11 12 -97 14 -110 4 -7 -6 -29 -12 -51 -14 -24
-2 -45 -12 -56 -25 -20 -26 -29 -28 -29 -7 0 16 -25 21 -34 6 -3 -5 -43 -12
-88 -16 -54 -5 -89 -13 -101 -23 -12 -10 -40 -18 -74 -19 -30 -1 -65 -9 -77
-16 -12 -8 -45 -18 -74 -22 -40 -5 -52 -11 -52 -24 0 -10 -8 -25 -18 -35 -18
-15 -21 -15 -45 4 -33 26 -67 26 -74 0 -6 -23 -14 -25 -32 -7 -10 10 -15 8
-26 -7 -8 -10 -19 -15 -25 -11 -13 8 -100 -31 -100 -45 0 -6 -19 -10 -43 -10
-47 0 -97 -19 -97 -36 0 -19 -30 -38 -40 -28 -12 12 -80 6 -80 -7 0 -5 -7 -9
-15 -9 -8 0 -23 -4 -33 -9 -30 -16 -111 -51 -119 -51 -21 0 -96 -45 -102 -62
-6 -18 -8 -18 -20 -4 -12 14 -16 14 -42 1 -16 -9 -36 -27 -45 -40 -17 -26 -40
-33 -46 -14 -4 11 -67 -19 -99 -47 -8 -8 -25 -14 -36 -14 -11 0 -28 -9 -38
-20 -10 -11 -22 -20 -28 -20 -5 0 -26 -13 -47 -30 -21 -16 -50 -30 -64 -30
-14 0 -26 -4 -26 -9 0 -5 -9 -12 -19 -16 -11 -3 -39 -24 -63 -45 -24 -22 -48
-40 -55 -40 -7 0 -17 -9 -23 -20 -6 -11 -21 -20 -33 -20 -22 0 -38 -9 -122
-67 -25 -18 -48 -33 -51 -33 -15 0 -74 -58 -74 -72 0 -12 -8 -18 -23 -18 -22
0 -57 -31 -57 -50 0 -6 -14 -13 -31 -17 -29 -6 -98 -63 -204 -173 -24 -25 -54
-56 -67 -69 -13 -12 -44 -43 -70 -68 -27 -25 -48 -54 -48 -64 0 -13 -7 -19
-23 -19 -16 0 -33 -13 -53 -40 -40 -55 -82 -111 -100 -134 -10 -11 -13 -27
-10 -42 6 -24 -7 -33 -19 -14 -5 8 -11 7 -21 0 -23 -20 -27 -50 -9 -70 10 -11
15 -26 12 -34 -5 -12 -11 -13 -36 -3 -27 10 -33 8 -56 -13 -17 -16 -24 -32
-21 -43 3 -13 -5 -29 -23 -46 -36 -33 -83 -118 -71 -126 22 -13 9 -46 -25 -66
-40 -24 -45 -46 -13 -51 13 -2 24 -11 26 -20 3 -15 -4 -18 -37 -18 -49 0 -73
-29 -75 -93 -1 -23 -5 -48 -9 -54 -4 -7 -5 -24 -1 -38 6 -22 2 -27 -25 -38
-26 -9 -31 -16 -27 -33 4 -13 0 -27 -9 -34 -8 -7 -15 -23 -15 -37 0 -13 -7
-38 -16 -55 -9 -17 -13 -40 -10 -51 3 -11 -3 -32 -14 -46 -27 -39 -35 -94 -16
-110 22 -18 20 -38 -4 -51 -22 -12 -29 -73 -10 -85 6 -3 10 -17 10 -31 0 -17
-5 -24 -20 -24 -25 0 -40 -29 -40 -75 0 -32 3 -36 20 -30 16 5 20 2 20 -14 0
-15 -6 -21 -23 -21 -13 0 -26 -3 -30 -6 -12 -13 6 -34 29 -34 14 0 27 -7 31
-15 6 -18 -25 -47 -44 -40 -16 5 -25 -9 -17 -29 4 -10 18 -16 38 -16 26 -1 29
-3 16 -13 -19 -15 -40 -74 -34 -92 3 -7 -2 -24 -10 -37 -20 -31 -18 -115 4
-148 17 -25 31 -77 31 -116 -1 -13 7 -24 19 -27 22 -6 18 -37 -5 -37 -22 0
-30 -41 -11 -52 13 -7 15 -18 10 -43 -5 -27 -2 -36 15 -47 14 -9 21 -23 21
-46 0 -19 8 -42 20 -54 21 -23 27 -72 10 -83 -19 -12 -10 -45 15 -55 21 -8 24
-14 18 -40 -5 -28 5 -78 27 -135 4 -11 14 -36 21 -55 7 -19 18 -42 26 -51 7
-8 13 -28 13 -43 0 -35 23 -79 55 -104 17 -13 25 -30 25 -50 0 -17 4 -34 10
-37 6 -3 10 -20 10 -37 0 -20 8 -36 24 -49 14 -11 27 -33 31 -49 4 -17 20 -40
35 -52 16 -12 27 -24 25 -29 -5 -7 13 -51 39 -97 8 -13 23 -30 35 -38 27 -19
63 -88 55 -108 -3 -9 4 -21 19 -31 14 -9 31 -29 37 -46 7 -16 21 -34 30 -39
11 -6 21 -27 25 -50 6 -33 11 -40 29 -40 23 0 76 -47 76 -67 0 -7 13 -21 29
-32 22 -16 28 -27 23 -43 -4 -18 -2 -20 19 -14 13 4 30 8 38 10 7 1 24 12 37
25 18 18 29 20 64 15 25 -4 45 -14 51 -25 13 -25 40 -24 62 1 18 22 48 26 77
10 23 -13 70 3 70 24 0 8 -7 22 -16 30 -13 13 -13 20 -2 43 11 22 20 27 52 29
22 0 42 6 44 12 2 7 17 12 32 12 38 0 51 -25 40 -76 -9 -37 -5 -132 7 -184 3
-14 7 -82 8 -151 1 -73 7 -135 14 -148 8 -13 10 -38 6 -65 -4 -25 -2 -52 4
-63 6 -13 7 -23 0 -30 -6 -6 -6 -20 2 -39 14 -32 16 -42 24 -134 15 -163 16
-150 -16 -150 -15 0 -39 4 -54 10 -46 18 -154 31 -173 21 -9 -5 -38 -5 -64 -1
-37 5 -54 3 -75 -10 -17 -9 -52 -17 -86 -17 -46 -1 -62 -6 -76 -22 -20 -23
-60 -28 -80 -8 -10 10 -18 6 -40 -20 -29 -35 -46 -41 -54 -20 -3 9 -8 9 -23 0
-11 -7 -42 -24 -71 -38 -28 -14 -55 -30 -58 -35 -3 -6 -15 -10 -25 -10 -12 0
-31 -16 -46 -40 -15 -22 -33 -40 -41 -40 -22 0 -93 -63 -93 -82 0 -10 -7 -18
-15 -18 -27 0 -65 -47 -65 -78 0 -32 -22 -58 -40 -47 -6 4 -17 -10 -26 -32 -9
-21 -25 -48 -36 -60 -12 -13 -19 -30 -15 -42 3 -13 -4 -28 -19 -42 -13 -12
-21 -25 -19 -29 2 -4 -2 -16 -10 -26 -8 -10 -15 -30 -15 -42 0 -13 -9 -37 -21
-53 -11 -16 -21 -43 -23 -61 -1 -18 -10 -50 -19 -72 -9 -21 -17 -56 -17 -77 0
-21 -4 -41 -10 -44 -5 -3 -10 -22 -10 -41 0 -20 -5 -45 -11 -56 -8 -15 -8 -27
2 -44 10 -19 10 -27 1 -36 -16 -16 -16 -182 0 -208 10 -16 10 -24 0 -40 -15
-24 -16 -40 -2 -40 6 0 10 9 10 20 0 11 5 20 10 20 19 0 11 -59 -10 -70 -12
-7 -18 -16 -13 -23 4 -7 8 -40 10 -74 1 -35 10 -84 19 -110 9 -27 20 -68 23
-93 5 -36 11 -47 34 -58 28 -14 34 -26 17 -37 -13 -8 -13 -52 0 -60 6 -3 10
-16 10 -28 0 -12 7 -31 15 -41 8 -11 15 -27 15 -37 0 -9 7 -22 15 -29 8 -7 15
-21 15 -30 0 -21 46 -112 111 -218 24 -41 54 -90 66 -110 12 -21 35 -49 52
-64 16 -14 35 -36 41 -49 25 -45 329 -349 350 -349 9 0 32 -16 51 -36 30 -32
131 -104 145 -104 3 0 32 -18 64 -40 32 -22 64 -40 70 -40 6 0 21 -7 34 -15
25 -17 139 -23 194 -10 27 6 32 12 31 34 -1 14 2 54 6 89 5 41 4 62 -3 62 -5
0 -15 14 -21 30 -7 22 -16 30 -34 30 -30 0 -110 40 -142 71 -41 40 -62 57
-102 82 -21 14 -54 40 -74 59 -19 20 -45 41 -57 47 -12 6 -22 18 -22 25 0 24
-82 96 -110 96 -22 0 -28 6 -37 43 -8 28 -29 60 -62 95 -28 29 -51 57 -51 63
0 5 -16 26 -35 48 -19 21 -35 46 -35 56 0 9 -13 34 -29 54 -15 20 -31 47 -35
61 -10 35 -27 71 -48 99 -10 13 -18 36 -18 52 0 38 -28 106 -46 113 -10 4 -14
23 -14 70 0 46 -6 75 -19 98 -14 24 -20 52 -20 103 0 39 -4 102 -10 140 -14
90 -14 225 -1 225 6 0 10 12 10 26 0 14 4 33 9 43 6 10 13 50 16 91 4 48 12
82 24 99 11 15 22 45 26 66 4 22 22 67 39 100 18 33 40 81 49 106 11 28 27 50
41 57 14 6 26 22 29 41 6 29 66 81 93 81 7 0 14 7 18 15 3 8 13 15 23 15 10 0
32 14 50 30 18 17 40 30 51 30 10 0 27 9 37 20 11 12 25 18 36 15 9 -3 20 -1
24 4 3 6 16 10 28 10 12 0 49 7 82 16 54 14 127 23 210 24 16 0 33 -6 37 -14
6 -9 19 -12 41 -8 26 4 40 -1 63 -20 16 -13 38 -27 49 -31 28 -8 75 -54 75
-72 0 -9 8 -29 17 -44 12 -22 14 -35 7 -52 -11 -26 -11 -511 -1 -573 4 -22 9
-87 12 -145 3 -58 7 -125 10 -150 14 -162 14 -184 3 -197 -8 -10 -8 -20 1 -40
7 -15 14 -65 17 -111 2 -46 6 -88 9 -93 9 -14 16 -105 15 -184 -1 -42 5 -88
15 -115 9 -25 18 -78 20 -118 2 -50 9 -80 20 -92 13 -14 14 -22 4 -42 -9 -20
-8 -32 5 -56 9 -17 13 -38 10 -47 -4 -9 1 -24 11 -35 11 -12 15 -28 11 -42 -6
-26 10 -139 27 -183 6 -16 10 -36 9 -42 -2 -7 4 -26 13 -42 8 -17 15 -47 15
-68 0 -21 7 -46 15 -57 8 -10 12 -30 9 -45 -3 -15 5 -54 20 -93 14 -36 30
-101 35 -143 5 -41 14 -81 19 -88 6 -7 20 -46 31 -87 12 -41 29 -86 40 -100
12 -17 17 -36 13 -58 -3 -23 1 -39 13 -52 10 -11 19 -32 21 -48 4 -47 16 -86
35 -114 11 -14 19 -31 19 -38 0 -18 32 -114 41 -124 5 -6 9 -20 9 -32 0 -13 5
-26 10 -29 6 -3 10 -13 10 -22 0 -9 8 -25 17 -35 9 -10 20 -44 24 -75 5 -34
14 -60 23 -65 9 -5 16 -16 16 -24 0 -8 11 -32 25 -52 14 -20 25 -44 25 -52 0
-9 9 -35 20 -58 11 -22 20 -47 20 -55 0 -8 15 -37 33 -63 19 -27 40 -67 47
-89 7 -22 17 -49 22 -60 16 -34 39 -79 48 -95 6 -8 19 -33 31 -54 12 -22 28
-46 35 -54 8 -7 14 -18 14 -24 0 -5 8 -22 18 -36 10 -15 25 -43 32 -62 7 -19
25 -48 40 -65 15 -16 31 -41 35 -55 4 -14 16 -36 26 -49 11 -13 19 -29 19 -35
0 -6 22 -42 50 -81 27 -38 59 -88 71 -110 12 -22 28 -44 35 -48 8 -4 14 -16
14 -26 0 -9 14 -30 30 -46 16 -16 30 -34 30 -40 0 -6 18 -31 40 -55 22 -24 40
-50 40 -57 0 -7 17 -30 38 -52 20 -22 46 -56 57 -76 10 -20 41 -56 67 -80 26
-24 48 -46 48 -50 0 -4 8 -17 18 -30 9 -12 24 -33 32 -45 34 -50 52 -70 60
-65 5 3 16 -8 25 -25 8 -16 51 -66 95 -111 44 -44 80 -85 80 -89 0 -5 16 -18
35 -30 19 -12 35 -28 35 -36 0 -8 3 -14 8 -14 10 0 112 -98 112 -108 0 -4 18
-15 39 -24 29 -13 43 -27 52 -51 10 -28 25 -41 77 -68 46 -24 68 -41 76 -61 6
-15 15 -28 21 -28 6 0 24 -14 40 -30 16 -17 34 -30 42 -30 7 0 17 -9 23 -20 6
-12 21 -20 35 -20 14 0 25 -6 25 -13 0 -18 33 -47 53 -47 9 0 26 -13 39 -30
12 -16 30 -30 39 -30 10 0 26 -10 36 -23 10 -12 36 -31 58 -41 22 -11 50 -29
62 -40 12 -12 34 -28 50 -36 15 -8 38 -25 50 -37 12 -13 31 -23 43 -23 11 0
29 -9 40 -20 11 -11 28 -20 39 -20 10 0 24 -7 32 -16 7 -8 26 -22 43 -31 17
-9 44 -26 59 -39 18 -15 41 -24 62 -24 20 0 45 -9 62 -23 15 -13 42 -29 60
-36 17 -7 34 -18 36 -25 3 -7 24 -18 48 -26 24 -7 51 -19 59 -25 8 -6 35 -17
60 -25 25 -7 64 -21 87 -31 24 -11 49 -19 58 -19 8 0 30 -9 50 -20 19 -11 38
-20 43 -20 15 0 77 -23 89 -32 7 -6 45 -14 84 -18 39 -4 74 -12 78 -18 8 -12
52 -27 69 -23 8 1 21 -4 30 -12 10 -8 33 -17 52 -20 33 -5 56 -11 163 -38 23
-6 62 -13 87 -15 25 -3 54 -9 65 -14 11 -5 49 -12 85 -15 36 -3 108 -10 160
-16 52 -5 119 -10 148 -10 53 0 61 0 142 2 25 1 61 1 80 1 19 0 67 0 105 0 39
1 98 1 133 0 50 -1 62 2 62 15 0 11 4 13 13 6 19 -15 192 -2 210 16 14 14 70
14 84 0 14 -14 33 -3 33 20 0 25 11 33 28 19 21 -18 82 -20 82 -3 0 19 19 30
31 18 11 -11 132 4 137 17 2 5 18 6 36 3 22 -3 36 0 45 11 7 9 28 16 45 16 17
1 49 7 71 15 22 8 50 15 62 15 12 0 26 8 32 17 5 10 22 19 38 19 15 1 44 6 63
12 70 19 90 31 90 52 0 24 13 26 30 5 16 -19 39 -19 46 0 3 8 14 17 25 20 10
4 19 13 19 21 0 10 13 14 45 14 46 0 82 12 127 43 16 10 32 16 37 12 5 -3 30
5 56 17 39 19 45 26 40 45 -3 13 -1 23 5 23 5 0 10 -7 10 -16 0 -13 7 -15 32
-10 39 8 41 9 43 43 1 16 3 33 3 40 2 15 55 10 60 -6 5 -16 42 -14 48 4 6 14
24 24 101 56 25 11 32 19 28 34 -3 11 -2 15 0 9 6 -11 39 1 85 31 8 5 17 10
20 11 22 4 60 27 88 53 18 17 39 31 46 31 7 0 25 14 41 30 16 17 34 30 40 30
6 0 21 14 34 30 12 17 26 28 31 25 5 -3 18 3 30 15 11 11 26 20 33 20 7 0 28
15 46 34 25 25 31 39 26 55 -5 15 -2 21 9 21 9 0 16 -7 16 -16 0 -24 24 -11
30 17 3 13 14 25 25 27 11 2 36 23 55 48 19 24 43 44 53 44 22 0 87 50 87 68
0 6 8 12 18 12 23 0 72 50 72 74 0 10 9 20 20 23 11 3 20 9 20 14 0 5 5 9 11
9 13 0 229 216 229 230 0 5 5 10 10 10 6 0 10 11 10 26 0 19 8 28 33 39 47 20
82 61 79 93 -2 19 0 23 6 13 13 -19 45 0 70 41 12 18 34 46 51 62 17 17 31 39
31 50 0 12 22 42 54 71 34 32 54 58 53 70 -1 12 7 24 20 30 27 11 38 34 23 49
-19 19 -10 44 18 54 15 5 35 18 44 28 10 11 35 37 56 59 21 22 44 54 51 70 7
17 17 38 22 47 5 10 9 27 9 38 0 13 7 20 18 20 18 0 52 29 52 43 0 4 17 35 38
69 21 35 43 74 50 88 25 47 47 85 68 115 12 17 24 47 28 67 4 23 13 38 21 38
22 0 56 83 49 118 -5 26 -3 30 25 35 29 6 38 20 32 51 -5 23 11 55 29 61 11 3
20 15 20 25 0 10 4 22 10 25 5 3 7 18 4 34 -5 23 -2 29 15 34 27 7 27 27 1 34
-24 6 -27 23 -5 23 28 0 85 64 85 96 0 29 18 87 33 112 5 7 6 30 2 51 -6 36
-4 39 24 51 17 7 31 19 31 26 0 8 9 23 20 34 24 24 25 29 3 46 -17 12 -16 16
10 68 15 30 37 58 47 61 14 4 20 15 20 34 0 15 9 44 19 65 35 68 41 93 25 107
-20 16 -17 29 6 29 11 0 24 8 27 18 4 9 9 19 13 22 3 3 12 30 19 60 8 30 16
59 19 64 3 6 6 44 6 85 l1 76 45 14 c25 8 49 20 53 28 4 7 17 13 27 13 22 0
67 24 149 79 31 20 72 45 91 54 19 8 59 34 89 56 30 23 58 41 62 41 6 0 133
100 238 187 18 15 42 33 51 38 10 6 54 44 99 85 46 41 86 76 91 78 13 5 234
231 240 245 4 11 57 84 70 97 14 14 50 70 50 78 0 5 14 26 30 47 17 21 30 45
30 54 0 9 9 27 20 41 11 14 20 29 20 33 0 5 14 28 30 52 17 24 30 48 30 54 0
6 4 19 9 29 25 46 91 213 91 228 0 6 9 31 19 54 11 24 17 49 14 57 -3 7 2 25
12 39 9 14 14 35 11 47 -3 11 -1 28 4 38 5 9 12 32 14 50 3 19 10 70 16 114 6
43 9 92 6 107 -3 15 -1 30 4 33 5 3 7 31 5 63 -3 31 -5 66 -4 77 4 77 -3 159
-15 196 -9 24 -16 73 -16 108 0 47 -5 72 -21 98 -12 18 -18 40 -15 48 9 25
-44 160 -123 311 -18 33 -66 100 -77 107 -8 4 -14 16 -14 26 0 10 -8 29 -18
42 -10 13 -22 32 -25 42 -4 11 -16 21 -27 24 -11 3 -20 11 -20 18 0 7 -11 20
-24 28 -13 9 -29 32 -36 52 -6 19 -15 35 -19 35 -4 0 -50 41 -102 90 -144 138
-158 150 -178 150 -10 0 -31 16 -45 35 -15 19 -33 35 -39 35 -7 0 -20 9 -30
20 -9 11 -25 20 -35 20 -25 0 -66 45 -59 64 4 9 11 16 16 16 5 0 13 15 16 33
4 17 15 43 25 57 31 46 52 99 45 119 -4 15 1 23 22 33 22 10 28 20 28 44 0 17
5 37 11 45 6 8 26 45 45 83 22 46 42 71 59 78 14 6 71 12 128 14 56 1 107 6
113 9 5 4 56 9 112 11 56 3 120 10 142 15 22 6 87 17 145 24 103 13 210 32
240 43 13 5 42 7 168 11 21 1 40 10 54 26 12 14 28 25 35 25 8 0 16 7 19 15 7
18 63 47 76 39 14 -9 38 16 38 40 0 12 4 26 9 31 9 10 16 50 27 150 4 28 10
55 15 61 5 6 8 28 7 50 0 21 2 69 5 106 4 51 2 69 -9 78 -20 17 -17 43 7 63
14 12 18 24 13 35 -16 36 -16 91 -1 113 14 19 14 24 0 45 -12 19 -13 27 -3 39
9 11 10 30 3 72 -5 32 -8 82 -5 111 3 40 0 58 -13 72 -16 17 -16 21 -1 42 22
31 20 59 -4 65 -20 5 -28 23 -10 23 16 0 12 50 -5 67 -12 11 -14 26 -9 58 5
38 2 49 -22 80 -27 35 -27 37 -11 65 18 29 22 60 10 60 -5 0 -15 4 -23 10 -12
7 -11 12 5 30 16 17 17 24 7 40 -7 11 -12 30 -12 43 0 13 -7 32 -15 43 -8 10
-15 31 -15 45 0 15 -9 38 -21 53 -12 15 -18 33 -14 45 3 10 -1 24 -10 31 -19
16 -19 30 0 30 23 0 18 13 -21 51 -34 32 -36 37 -30 84 5 40 2 53 -14 70 -11
12 -24 41 -29 66 -11 59 -70 179 -88 179 -7 0 -18 11 -23 25 -5 14 -16 25 -24
25 -19 0 -30 31 -14 41 10 7 10 15 -1 41 -7 18 -14 41 -14 52 -1 10 -12 25
-24 33 -15 10 -23 25 -23 43 0 15 -9 35 -20 45 -11 10 -20 24 -20 31 0 7 -14
22 -31 34 -17 13 -28 28 -25 36 8 21 -26 85 -71 132 -23 24 -44 54 -47 67 -8
32 -53 97 -75 110 -25 14 -67 65 -75 93 -4 12 -12 22 -17 22 -5 0 -9 7 -9 16
0 8 -4 13 -9 9 -5 -3 -13 -1 -16 5 -5 8 -11 8 -20 0 -18 -15 -27 2 -19 35 4
16 2 25 -5 25 -7 0 -20 17 -29 38 -22 49 -95 132 -116 132 -8 0 -22 13 -30 29
-9 16 -22 31 -31 34 -8 4 -15 16 -15 28 0 22 -14 22 -65 3 -15 -6 -16 -3 -11
22 6 25 2 33 -24 52 -16 13 -30 29 -30 37 0 9 -10 15 -25 15 -14 0 -25 5 -25
10 0 19 -52 89 -69 95 -10 3 -33 25 -51 50 -34 46 -56 55 -78 33 -16 -16 -32
5 -32 45 0 22 -4 27 -25 27 -17 0 -28 7 -34 23 -5 13 -17 29 -26 37 -16 14
-17 12 -11 -18 4 -17 4 -32 -1 -32 -9 0 -33 47 -33 64 0 14 -51 66 -65 66 -7
0 -24 11 -39 25 -28 26 -58 33 -54 13 2 -6 -5 -14 -14 -16 -12 -2 -19 5 -23
25 -11 48 -14 53 -31 53 -10 0 -25 -7 -34 -15 -16 -14 -20 -13 -49 11 -23 19
-29 30 -21 38 7 7 16 7 30 -2 30 -18 24 -2 -12 35 -29 30 -35 32 -76 26 -44
-6 -45 -6 -39 19 6 21 1 28 -33 46 -34 18 -42 19 -54 7 -12 -13 -18 -10 -40
20 -14 18 -26 38 -26 44 0 6 -16 11 -35 11 -24 0 -37 6 -45 20 -8 14 -21 20
-45 20 -24 0 -35 5 -35 14 0 15 -21 29 -87 61 -18 8 -33 19 -33 24 0 11 -46
31 -71 31 -17 0 -15 -5 13 -36 18 -20 39 -43 47 -51 7 -8 10 -17 6 -21 -4 -4
-10 -1 -12 6 -3 6 -11 12 -19 12 -8 0 -19 11 -24 24 -5 13 -21 30 -37 38 -15
7 -34 26 -41 41 -15 32 -37 35 -45 7 -3 -11 -13 -20 -22 -20 -12 0 -16 6 -12
19 6 26 -44 71 -87 78 -29 4 -35 2 -41 -16 -10 -32 -30 -19 -28 16 2 26 -3 33
-41 52 -36 19 -47 21 -66 11 -30 -16 -70 -5 -70 20 0 28 -37 26 -61 -2 -16
-20 -20 -21 -29 -8 -20 31 -26 35 -70 51 -29 11 -44 22 -42 31 3 20 -24 42
-42 35 -8 -3 -20 1 -26 9 -16 18 -25 18 -45 -2 -15 -15 -19 -15 -56 1 -21 10
-39 22 -39 27 0 17 -32 7 -37 -12 -3 -11 -9 -20 -13 -20 -13 0 -70 60 -70 73
0 7 -18 13 -45 14 -28 1 -56 10 -76 24 -27 19 -40 21 -100 17 -38 -3 -72 -2
-74 2 -3 4 -22 11 -42 15 -21 4 -46 14 -56 22 -14 14 -21 14 -41 3 -25 -13
-51 -6 -41 11 9 13 -9 11 -23 -3 -9 -9 -16 -8 -29 3 -28 23 -66 38 -93 38 -88
-3 -213 10 -228 24 -10 8 -37 15 -63 15 -26 0 -57 6 -70 12 -18 10 -24 10 -34
-3 -10 -14 -12 -14 -21 0 -8 13 -14 14 -33 4 -18 -10 -26 -10 -39 2 -12 11
-31 13 -70 10 -45 -5 -56 -2 -76 16 -20 19 -30 21 -75 15 -28 -4 -51 -11 -51
-16 0 -5 -10 -8 -22 -7 -13 2 -33 -2 -45 -9 -30 -17 -75 3 -71 32 4 27 -27 33
-52 11 -11 -10 -24 -14 -31 -9 -7 4 -24 9 -38 10 -14 2 -40 6 -57 9 -27 6 -38
2 -72 -29 -22 -20 -42 -36 -46 -36 -4 0 -5 12 -4 28 2 21 -2 28 -19 30 -13 2
-23 -2 -23 -8 0 -8 -9 -10 -25 -6 -14 4 -33 1 -44 -6 -14 -8 -23 -9 -33 -1 -7
6 -39 11 -71 11 -32 0 -64 6 -72 12 -10 8 -33 9 -86 1 -46 -6 -79 -6 -90 0
-30 16 -59 11 -59 -10 0 -31 -19 -35 -45 -11 -23 22 -24 22 -54 4 -25 -15 -34
-16 -56 -6 -40 19 -63 15 -67 -10 -2 -19 -10 -24 -45 -26 -33 -2 -44 1 -56 19
-13 17 -21 20 -44 15 -23 -6 -64 -12 -128 -17 -5 -1 -18 2 -27 6 -12 5 -20 2
-24 -9 -8 -20 -28 -21 -44 -1 -17 21 -25 19 -38 -10 -13 -28 -43 -33 -62 -10
-16 19 -59 20 -66 1 -4 -10 -18 -12 -49 -8 -29 3 -50 0 -61 -9 -17 -14 -75
-18 -354 -20 -127 -1 -218 4 -289 15 -58 9 -123 16 -145 16 -23 0 -55 9 -74
20 -18 11 -42 20 -54 20 -11 0 -36 10 -55 21 -23 14 -43 19 -62 16 -15 -3 -32
-2 -37 2 -16 15 -143 32 -162 22 -12 -7 -25 -4 -45 7 -23 14 -31 14 -48 4 -16
-10 -26 -10 -55 4 -29 14 -39 15 -59 4 -13 -7 -29 -9 -37 -4 -7 5 -24 7 -36 5
-13 -1 -37 3 -53 10 -24 9 -35 9 -54 -1 -20 -11 -27 -11 -40 0 -13 11 -20 11
-41 -1 -16 -8 -28 -9 -32 -3 -14 19 -64 36 -76 24 -12 -12 -63 -13 -70 -1 -3
5 -28 4 -57 -1 -35 -6 -55 -6 -62 1 -18 18 -37 13 -37 -9 0 -25 -12 -26 -33
-2 -12 13 -33 19 -76 20 -33 1 -63 -3 -66 -8z m4810 -240 c3 -5 -1 -10 -10
-10 -9 0 -13 5 -10 10 3 6 8 10 10 10 2 0 7 -4 10 -10z m1725 -560 c0 -5 -4
-10 -10 -10 -5 0 -10 5 -10 10 0 6 5 10 10 10 6 0 10 -4 10 -10z m460 -260 c0
-5 -4 -10 -10 -10 -5 0 -10 5 -10 10 0 6 5 10 10 10 6 0 10 -4 10 -10z
m-10820 -270 c0 -11 -2 -20 -4 -20 -2 0 -11 -3 -20 -6 -19 -7 -22 16 -4 34 18
18 28 15 28 -8z m-240 -240 c0 -11 -4 -20 -10 -20 -5 0 -10 9 -10 20 0 11 5
20 10 20 6 0 10 -9 10 -20z m11095 -50 c3 -5 1 -10 -4 -10 -6 0 -11 5 -11 10
0 6 2 10 4 10 3 0 8 -4 11 -10z m-7020 -575 c38 -4 77 -11 87 -16 9 -5 30 -9
45 -9 16 0 58 -11 93 -25 35 -14 74 -25 86 -25 13 0 26 -4 29 -10 3 -5 17 -10
30 -10 34 0 55 -10 55 -26 0 -8 11 -14 26 -14 15 0 58 -18 96 -40 39 -22 75
-40 80 -40 6 0 25 -10 42 -23 52 -39 88 -50 170 -52 l78 -3 -5 34 c-3 18 -2
36 3 39 6 3 37 -12 69 -35 33 -22 73 -45 88 -50 15 -6 37 -14 48 -19 53 -24
100 -33 210 -38 109 -5 125 -4 168 16 26 11 68 30 95 41 26 12 54 25 62 30 8
5 29 16 46 24 17 8 35 19 38 25 4 6 18 11 32 11 13 0 32 9 41 20 13 15 30 20
65 20 26 0 50 5 53 10 3 6 22 10 42 10 19 0 47 8 61 18 39 27 166 65 223 67
27 1 52 5 56 8 3 4 30 7 60 7 29 0 53 4 53 10 0 13 62 29 75 19 6 -4 31 -3 56
1 41 8 128 6 224 -5 17 -2 42 -4 57 -4 15 -1 33 -7 40 -14 7 -8 33 -17 57 -21
24 -4 56 -16 71 -26 16 -11 36 -20 47 -20 10 0 29 -9 43 -20 14 -11 31 -20 39
-20 18 0 81 -48 78 -59 -1 -5 1 -9 6 -10 18 -1 67 -36 67 -48 0 -6 13 -20 29
-29 20 -12 34 -31 43 -61 7 -24 20 -45 30 -49 32 -10 69 -63 62 -90 -4 -15 -1
-32 7 -42 27 -33 38 -60 32 -80 -2 -11 1 -31 8 -43 8 -13 17 -60 21 -104 11
-107 11 -116 3 -147 -6 -22 -4 -28 9 -28 22 0 22 -66 0 -78 -11 -6 -16 -29
-18 -93 -3 -81 -19 -139 -39 -139 -5 0 -7 -13 -4 -29 5 -21 0 -37 -15 -56 -15
-20 -18 -29 -9 -38 20 -20 11 -45 -24 -67 -19 -12 -35 -29 -35 -39 0 -9 -6
-25 -14 -36 -7 -11 -14 -31 -14 -45 0 -33 -38 -97 -62 -105 -23 -7 -50 -58
-50 -95 0 -31 -30 -64 -37 -42 -5 14 -23 16 -23 2 0 -12 -16 -30 -92 -106 -32
-32 -58 -63 -58 -69 0 -15 -50 -61 -75 -69 -24 -8 -75 -51 -75 -64 0 -5 -7
-15 -15 -22 -23 -19 -18 -37 15 -52 43 -18 37 -28 -16 -28 -32 0 -44 -4 -42
-12 4 -14 172 -101 300 -158 59 -25 80 -31 91 -22 10 9 19 8 35 -4 12 -8 31
-14 41 -12 11 2 28 -8 40 -21 15 -18 27 -22 46 -17 15 4 37 0 55 -9 16 -8 38
-15 48 -15 10 0 29 -9 42 -20 22 -19 56 -26 107 -21 16 1 26 -8 39 -34 13 -28
22 -35 44 -35 16 0 30 6 33 13 3 9 9 9 25 0 12 -7 27 -10 35 -7 8 3 20 -2 27
-11 7 -8 21 -15 31 -15 10 0 20 -4 23 -8 3 -5 31 -9 63 -10 63 0 127 -22 136
-47 4 -8 13 -15 20 -15 21 0 40 -27 31 -42 -5 -7 -9 -19 -10 -28 -1 -8 -4 -22
-8 -30 -3 -8 -2 -21 3 -29 7 -11 14 -10 39 7 25 18 32 20 41 8 20 -24 50 -26
61 -5 6 10 20 19 31 19 12 0 32 9 46 20 31 24 64 25 106 3 18 -9 36 -16 42
-14 22 6 96 -11 112 -27 9 -10 34 -17 57 -18 54 -2 157 -24 175 -38 8 -6 30
-12 50 -13 52 -3 114 -14 126 -23 6 -4 39 -11 75 -15 36 -4 74 -12 85 -19 11
-6 36 -12 55 -12 19 -1 53 -6 75 -11 31 -7 40 -13 38 -28 -1 -11 -3 -33 -5
-50 -3 -27 0 -30 31 -35 31 -5 35 -10 48 -55 8 -27 22 -63 30 -80 50 -93 93
-182 93 -193 0 -7 11 -28 25 -46 14 -18 25 -36 25 -41 0 -4 14 -23 30 -42 17
-18 30 -40 30 -48 0 -8 9 -20 20 -27 11 -7 20 -18 20 -24 0 -6 9 -19 20 -29
11 -10 20 -23 20 -29 0 -6 32 -40 70 -75 59 -55 85 -91 65 -91 -13 0 -113 49
-119 59 -4 6 -19 11 -33 11 -13 0 -68 9 -121 20 -85 17 -129 19 -357 15 -143
-2 -269 -3 -280 -2 -11 0 -103 0 -205 0 -102 0 -196 0 -210 0 -52 -1 -278 4
-335 6 -139 6 -1602 -7 -1618 -14 -10 -4 -23 -2 -31 4 -11 9 -16 9 -21 1 -5
-8 -41 -11 -104 -10 -53 1 -145 -3 -206 -9 -60 -6 -148 -13 -195 -15 -97 -6
-130 -14 -180 -45 -19 -11 -43 -21 -52 -21 -9 0 -28 -11 -42 -25 -14 -14 -32
-25 -40 -25 -18 0 -76 -57 -76 -75 0 -8 -9 -20 -20 -28 -14 -10 -18 -20 -14
-32 4 -11 2 -22 -7 -29 -27 -21 -56 -72 -62 -106 -3 -19 -10 -59 -15 -87 -5
-29 -10 -55 -13 -57 -14 -13 -83 -23 -115 -16 -20 5 -46 5 -58 1 -26 -9 -118
-7 -134 3 -7 4 -10 11 -7 16 7 12 -24 132 -40 150 -7 8 -23 40 -37 70 -30 66
-142 183 -209 216 -25 13 -65 25 -90 26 -28 2 -49 9 -57 21 -8 10 -21 16 -31
12 -21 -6 -228 -26 -256 -24 -55 4 -278 9 -420 9 -88 0 -185 1 -215 2 -30 1
-300 1 -600 0 -300 -1 -563 -1 -585 -1 -110 4 -702 -8 -780 -15 -33 -3 -92
-11 -132 -16 -40 -6 -105 -13 -146 -14 -49 -2 -83 -9 -98 -20 -13 -9 -33 -16
-45 -16 -81 0 -255 -141 -301 -242 -26 -58 -26 -58 -69 -58 -23 0 -46 5 -50
12 -10 16 -5 128 7 150 6 11 12 49 13 86 2 37 9 81 16 97 6 17 14 57 17 90 3
33 14 75 24 93 10 18 21 52 23 75 4 39 26 113 43 140 3 6 8 20 9 31 5 52 18
103 30 121 8 11 14 26 14 33 0 8 6 28 14 45 31 74 36 90 36 121 0 20 8 40 20
51 11 10 20 30 20 44 0 40 24 66 72 80 24 7 49 18 55 23 7 6 24 8 37 4 15 -4
28 0 36 9 8 9 21 13 37 9 14 -4 31 -1 41 7 35 28 63 39 99 39 21 0 53 9 71 20
18 11 43 20 57 20 13 0 36 5 50 12 19 9 31 9 44 1 13 -8 24 -4 51 18 19 16 44
29 57 29 12 0 25 5 28 10 3 6 24 10 47 10 25 0 49 7 65 20 14 11 41 22 62 25
20 3 44 10 54 16 10 5 22 7 27 4 4 -3 23 3 42 14 18 11 62 26 98 35 36 9 85
25 110 35 25 11 70 27 100 36 57 16 77 24 122 45 14 7 41 10 58 8 21 -3 35 0
43 11 16 22 61 41 96 41 16 0 40 9 54 20 14 11 37 20 51 20 14 0 26 4 26 8 0
5 13 9 30 9 16 0 38 7 47 15 10 9 42 21 72 28 35 8 64 23 79 39 76 82 87 91
114 91 32 0 36 15 12 48 -8 12 -12 26 -9 32 3 5 3 25 -1 44 -4 27 -13 37 -35
45 -22 7 -29 16 -29 35 0 20 -10 31 -47 50 -52 26 -181 155 -207 205 -9 17
-25 35 -35 41 -11 5 -23 20 -27 32 -4 13 -19 39 -33 58 -15 19 -34 51 -44 70
-9 19 -26 49 -37 65 -11 17 -22 37 -26 45 -3 8 -12 27 -20 42 -8 14 -14 33
-14 41 0 8 -12 36 -27 62 -14 27 -28 64 -29 84 -1 20 -9 63 -18 96 -38 144
-40 337 -4 470 39 146 105 274 184 361 11 11 24 29 30 40 12 21 179 136 234
160 19 9 46 22 60 28 34 18 105 36 225 57 101 18 285 19 450 4z m5144 -202
c17 -21 31 -48 31 -61 0 -13 7 -40 16 -60 28 -64 43 -109 76 -222 26 -88 36
-384 17 -500 -18 -106 -29 -192 -33 -241 -2 -26 -7 -52 -11 -59 -4 -7 -10 -38
-12 -69 -3 -31 -12 -69 -21 -86 -9 -16 -22 -55 -28 -85 -15 -67 -59 -197 -74
-215 -6 -7 -8 -20 -4 -28 3 -9 -1 -24 -10 -32 -9 -9 -23 -41 -32 -70 -8 -30
-20 -57 -25 -60 -5 -4 -9 -14 -9 -24 0 -27 -101 -215 -131 -244 -11 -10 -19
-21 -19 -25 0 -14 -159 -186 -203 -219 -31 -24 -52 -33 -83 -33 -36 0 -43 4
-53 28 -9 22 -9 34 4 59 8 17 22 36 30 43 8 7 15 18 15 26 0 7 9 18 20 24 11
6 20 17 20 25 0 8 9 20 20 27 11 7 20 21 20 30 0 10 11 25 24 34 14 8 40 46
59 82 19 37 44 85 56 107 35 67 78 166 102 235 12 36 33 90 47 120 14 30 28
75 33 100 4 25 12 61 17 80 33 117 51 193 57 250 4 36 12 76 17 90 16 41 29
424 15 447 -3 4 -10 44 -17 88 -6 44 -16 94 -22 110 -6 17 -16 55 -24 85 -7
30 -20 80 -29 110 -19 69 -19 110 0 137 14 19 31 25 97 31 9 1 30 -15 47 -35z
m-9891 -246 c2 -19 -1 -27 -12 -27 -11 0 -16 10 -16 31 0 38 24 35 28 -4z
m2425 -38 c20 -5 44 -21 53 -34 14 -22 14 -30 -1 -92 -19 -75 -46 -288 -39
-306 2 -7 6 -57 9 -112 5 -109 10 -140 50 -320 28 -124 90 -323 106 -340 5 -5
9 -18 9 -30 0 -11 9 -33 20 -50 11 -16 20 -37 20 -45 0 -8 9 -26 20 -40 11
-14 20 -31 20 -38 0 -23 116 -186 186 -263 42 -45 80 -78 100 -84 38 -12 74
-42 74 -63 0 -9 -5 -30 -12 -48 -19 -53 -46 -50 -161 19 -57 34 -140 121 -182
190 -21 34 -48 73 -60 87 -32 36 -54 81 -154 310 -18 41 -40 91 -48 110 -16
35 -22 59 -43 155 -5 28 -13 57 -17 65 -7 15 -26 94 -44 185 -29 144 -49 488
-29 500 6 3 8 16 4 28 -7 29 23 175 42 205 16 25 24 26 77 11z m8936 -173 c44
-40 62 -102 91 -321 17 -128 19 -410 3 -479 -7 -33 -12 -65 -9 -72 2 -6 0 -16
-4 -20 -5 -5 -14 -43 -20 -84 -10 -74 -43 -198 -61 -232 -5 -10 -9 -25 -9 -33
0 -8 -4 -23 -9 -33 -5 -9 -14 -35 -20 -57 -19 -62 -53 -148 -70 -174 -8 -13
-16 -30 -17 -37 -1 -7 -12 -27 -23 -43 -12 -16 -21 -36 -21 -45 0 -8 -11 -27
-25 -42 -14 -15 -25 -33 -25 -39 0 -7 -13 -27 -30 -45 -16 -18 -30 -38 -30
-45 0 -17 -51 -95 -62 -95 -4 0 -8 -4 -8 -9 0 -5 -18 -37 -40 -70 -22 -33 -40
-64 -40 -70 0 -5 -13 -19 -30 -31 -16 -12 -30 -28 -30 -36 0 -20 -49 -69 -78
-78 -12 -4 -22 -12 -22 -17 0 -13 -69 -42 -85 -35 -25 9 -46 70 -41 119 3 26
7 51 11 57 3 5 1 10 -4 10 -18 0 -12 20 7 27 26 9 52 34 52 50 0 17 42 74 88
121 17 18 32 37 32 42 0 18 45 80 58 80 6 0 12 12 12 26 0 14 15 49 33 77 19
29 43 71 55 94 28 56 45 85 59 103 12 16 41 93 63 170 8 25 21 54 31 65 16 19
25 58 32 131 1 17 10 42 18 55 9 13 18 46 21 73 4 29 13 55 22 61 11 9 15 24
12 54 -2 23 1 63 6 89 16 75 18 98 22 264 3 87 7 162 11 168 3 5 1 19 -5 30
-6 11 -12 50 -15 87 -2 38 -7 88 -11 111 -4 28 -2 48 5 55 6 6 11 19 11 28 0
35 48 32 89 -5z m-10199 -47 c56 -12 68 -32 56 -92 -8 -39 -27 -184 -28 -212
-1 -80 13 -277 26 -360 31 -187 33 -200 49 -245 33 -98 67 -208 67 -220 0 -7
14 -42 31 -79 17 -36 35 -76 40 -88 21 -54 33 -80 50 -114 11 -20 19 -41 19
-46 0 -16 141 -265 179 -317 40 -54 56 -70 129 -139 52 -48 52 -48 37 -77 -8
-16 -15 -36 -15 -45 0 -23 -56 -19 -93 7 -18 11 -45 33 -62 48 -16 16 -40 31
-51 34 -12 4 -32 22 -45 41 -13 19 -30 35 -37 35 -7 0 -16 8 -19 18 -4 9 -21
35 -38 57 -18 22 -45 63 -61 90 -15 28 -34 55 -41 60 -13 11 -73 128 -73 143
0 5 -9 21 -21 36 -12 15 -18 33 -15 44 4 11 -2 29 -14 45 -11 14 -20 33 -20
44 0 10 -9 29 -20 43 -11 14 -20 37 -20 52 0 15 -5 30 -10 33 -6 3 -7 17 -4
29 4 16 0 25 -10 29 -9 4 -16 17 -16 30 0 13 -4 27 -9 32 -5 6 -11 33 -14 60
-3 28 -11 73 -17 100 -6 28 -14 70 -16 95 -3 25 -9 54 -14 65 -16 38 -48 406
-42 475 10 103 23 176 36 195 9 13 16 34 16 46 0 18 25 59 36 59 2 0 26 -5 54
-11z m-1310 -759 c0 -5 -4 -10 -10 -10 -5 0 -10 5 -10 10 0 6 5 10 10 10 6 0
10 -4 10 -10z m7271 -2590 c27 8 45 8 59 0 11 -6 30 -8 42 -5 13 3 68 2 123
-3 55 -5 113 -5 129 -1 16 5 34 5 40 1 16 -10 68 -10 89 1 12 5 23 4 32 -3 9
-8 39 -10 87 -6 126 9 240 7 252 -4 7 -5 16 -7 20 -3 10 10 155 12 161 2 3 -4
16 -5 28 0 12 4 83 6 157 3 189 -5 188 -5 259 5 44 7 74 6 93 -1 20 -7 31 -7
39 1 7 7 29 7 75 -2 35 -6 66 -10 69 -7 2 3 35 4 72 3 38 -1 84 3 103 9 28 8
41 7 68 -7 32 -17 34 -17 47 0 10 14 18 16 32 9 24 -13 152 -13 180 0 12 6 30
7 40 3 10 -4 50 -7 90 -6 39 2 80 -2 91 -8 12 -6 23 -7 26 -2 3 4 81 7 173 6
92 -2 175 1 185 6 10 5 19 5 23 0 3 -5 22 -9 43 -9 151 1 187 -4 219 -28 18
-14 38 -21 48 -18 9 4 25 -2 38 -13 12 -10 34 -25 49 -33 23 -11 29 -22 34
-61 5 -35 10 -46 20 -42 15 6 19 -12 5 -21 -5 -3 -8 -36 -7 -73 1 -38 -2 -79
-7 -93 -5 -14 -13 -54 -17 -90 -10 -83 -20 -131 -30 -149 -4 -8 -4 -28 1 -44
5 -17 5 -35 0 -41 -5 -6 -11 -24 -14 -41 -20 -106 -41 -193 -52 -215 -7 -14
-11 -47 -9 -75 2 -31 -2 -55 -10 -65 -15 -17 -24 -56 -36 -151 -4 -37 -15 -81
-24 -99 -9 -18 -16 -45 -16 -59 0 -14 -7 -39 -15 -55 -8 -15 -15 -37 -15 -47
0 -10 -4 -21 -10 -24 -5 -3 -10 -19 -10 -35 0 -16 -5 -32 -11 -35 -6 -4 -8
-22 -4 -46 4 -25 3 -39 -4 -39 -6 0 -11 -9 -11 -19 0 -11 -5 -23 -11 -27 -7
-4 -9 -21 -5 -44 4 -28 0 -49 -20 -88 -14 -29 -31 -52 -38 -52 -7 0 -19 -12
-27 -27 -20 -39 -70 -82 -95 -83 -12 0 -24 -7 -28 -15 -5 -15 -43 -34 -106
-53 -30 -9 -297 -17 -410 -12 -19 1 -118 0 -220 -3 -114 -2 -190 0 -198 6 -8
6 -21 7 -35 1 -12 -5 -47 -7 -77 -4 -30 3 -73 2 -95 -2 -43 -7 -158 -3 -230 8
-34 5 -51 2 -71 -11 -23 -15 -29 -15 -57 -2 -23 11 -54 14 -112 11 -60 -4 -85
-1 -100 10 -19 14 -19 15 17 68 72 104 223 446 248 561 5 23 16 74 25 112 68
306 100 697 66 820 -48 181 -115 321 -188 396 -31 32 -66 55 -114 74 -85 35
-142 31 -244 -15 -92 -42 -213 -165 -268 -272 -21 -40 -37 -78 -37 -83 0 -6
-13 -26 -28 -45 -16 -19 -37 -57 -47 -85 -42 -118 -52 -141 -67 -165 -9 -14
-20 -47 -24 -75 -4 -27 -18 -81 -31 -120 -13 -38 -26 -83 -28 -100 -2 -16 -8
-57 -14 -90 -48 -254 -62 -538 -35 -660 9 -38 20 -88 25 -110 18 -85 37 -161
47 -185 9 -23 7 -25 -20 -27 -17 -1 -36 -8 -44 -14 -8 -6 -24 -9 -37 -5 -13 3
-37 2 -54 -3 -20 -6 -37 -4 -53 4 -14 8 -47 11 -85 8 -52 -3 -72 1 -118 22
-75 36 -93 55 -133 144 -51 109 -59 133 -146 421 -11 36 -31 94 -45 130 -51
133 -63 169 -63 199 0 12 -9 50 -19 84 -11 34 -25 88 -31 119 -6 32 -16 60
-21 63 -5 4 -9 24 -9 46 0 22 -7 74 -15 115 -9 41 -13 79 -10 84 4 6 1 26 -5
44 -6 19 -13 60 -15 93 -2 32 -9 114 -16 183 -10 110 -10 132 5 180 31 105 59
135 161 171 64 22 265 40 303 27 14 -5 41 -4 63 2z m4619 -15 c7 -8 25 -15 41
-15 17 0 34 -8 43 -21 11 -16 21 -20 41 -15 17 4 47 -2 88 -19 35 -14 74 -25
86 -25 14 0 25 -7 28 -20 6 -22 56 -50 93 -53 13 -1 25 -9 27 -18 3 -9 16 -22
29 -28 13 -6 38 -31 56 -56 22 -30 39 -45 54 -45 17 0 25 -9 34 -35 6 -19 20
-40 31 -46 11 -5 24 -21 29 -35 6 -14 17 -24 30 -24 15 0 20 -7 20 -29 0 -19
8 -36 23 -48 12 -10 27 -30 34 -45 7 -15 27 -44 46 -65 22 -24 36 -53 40 -78
4 -25 16 -48 30 -60 17 -14 27 -35 32 -70 3 -27 13 -60 21 -73 17 -27 21 -41
35 -132 5 -36 14 -80 19 -99 6 -22 5 -51 -1 -83 -8 -34 -8 -58 0 -80 16 -44
14 -94 -5 -130 -9 -17 -16 -51 -16 -77 0 -25 -5 -52 -11 -58 -6 -9 -5 -20 6
-36 13 -20 13 -26 1 -42 -8 -10 -14 -29 -14 -41 0 -12 -9 -33 -20 -46 -18 -24
-25 -48 -37 -140 -3 -21 -9 -38 -14 -38 -5 0 -9 -10 -9 -23 0 -13 -13 -34 -31
-50 -23 -19 -29 -32 -24 -47 4 -14 2 -20 -7 -18 -9 2 -15 -12 -18 -42 -4 -33
-10 -46 -23 -48 -28 -5 -57 -34 -57 -55 0 -9 -7 -20 -15 -23 -8 -4 -15 -11
-15 -18 0 -6 -9 -19 -20 -29 -11 -9 -20 -23 -20 -30 0 -8 -9 -22 -20 -32 -11
-10 -20 -24 -20 -32 0 -7 -16 -23 -35 -34 -19 -12 -35 -26 -35 -32 -1 -12 -40
-49 -107 -103 -18 -14 -33 -34 -33 -44 0 -11 -15 -25 -37 -35 -21 -10 -41 -23
-45 -28 -3 -6 -14 -12 -24 -13 -9 -2 -36 -21 -58 -43 -23 -23 -49 -41 -58 -41
-10 0 -29 -16 -44 -35 -14 -19 -35 -35 -46 -35 -10 0 -21 -7 -24 -15 -4 -8
-11 -15 -17 -15 -6 0 -21 -10 -34 -22 -13 -12 -30 -23 -39 -24 -8 -1 -37 -17
-64 -34 -37 -24 -50 -38 -50 -56 0 -22 -4 -24 -45 -24 -47 0 -111 -26 -134
-54 -8 -9 -18 -16 -23 -16 -19 0 -138 -61 -138 -71 0 -5 -10 -9 -22 -9 -12 0
-18 -3 -15 -6 15 -16 -15 -44 -46 -44 -18 0 -39 -6 -46 -12 -7 -7 -28 -13 -48
-13 -35 0 -35 0 -53 -65 -10 -36 -23 -78 -30 -95 -7 -16 -14 -54 -16 -84 -2
-30 -10 -61 -19 -70 -8 -10 -15 -27 -15 -39 0 -12 -4 -22 -10 -22 -5 0 -12
-17 -15 -37 -3 -21 -15 -65 -26 -98 -11 -33 -25 -80 -31 -105 -5 -25 -14 -61
-19 -80 -5 -19 -11 -52 -12 -72 -3 -26 -12 -44 -29 -58 -24 -18 -58 -94 -58
-128 0 -9 -7 -23 -15 -32 -8 -9 -16 -36 -17 -60 -1 -30 -8 -49 -25 -66 -13
-13 -26 -37 -29 -53 -4 -17 -15 -38 -25 -47 -11 -9 -19 -24 -19 -33 0 -9 -9
-29 -20 -46 -12 -18 -20 -47 -20 -71 0 -32 -5 -45 -22 -57 -21 -14 -22 -17 -9
-38 12 -20 11 -24 -3 -34 -57 -42 -66 -52 -66 -73 0 -12 -6 -30 -12 -38 -7 -8
-18 -20 -23 -27 -28 -32 -55 -76 -55 -89 0 -7 -15 -36 -34 -63 -18 -28 -37
-66 -41 -85 -4 -19 -21 -48 -37 -63 -24 -22 -29 -34 -25 -56 5 -23 2 -30 -14
-34 -11 -3 -23 -15 -26 -26 -3 -11 -16 -27 -29 -36 -13 -8 -24 -24 -24 -34 0
-10 -7 -25 -17 -32 -9 -8 -24 -32 -34 -54 -10 -22 -29 -51 -43 -65 -15 -13
-26 -28 -26 -34 0 -6 -9 -17 -20 -24 -11 -7 -20 -21 -20 -31 0 -11 -13 -29
-30 -41 -16 -12 -30 -27 -30 -35 0 -27 -45 -97 -71 -111 -28 -14 -43 -39 -33
-55 3 -5 -6 -13 -20 -19 -26 -10 -36 -40 -13 -40 8 -1 7 -5 -4 -13 -8 -7 -18
-19 -21 -28 -4 -9 -22 -19 -41 -23 -29 -5 -39 -14 -56 -50 -12 -23 -32 -49
-46 -56 -14 -7 -27 -21 -30 -30 -3 -10 -48 -61 -100 -114 -52 -54 -95 -104
-95 -112 0 -8 -7 -14 -16 -14 -14 0 -111 -94 -145 -141 -7 -10 -20 -19 -27
-19 -8 0 -44 -28 -80 -63 -37 -35 -86 -78 -109 -95 -23 -18 -43 -42 -45 -54
-2 -16 -12 -24 -38 -29 -19 -4 -44 -19 -56 -33 -12 -13 -45 -37 -73 -52 -28
-14 -60 -37 -70 -50 -10 -13 -25 -24 -31 -24 -7 0 -29 -12 -48 -26 -19 -15
-55 -38 -81 -51 -25 -14 -53 -33 -61 -42 -18 -23 -141 -91 -162 -91 -9 0 -23
-11 -32 -25 -9 -14 -23 -25 -31 -25 -28 0 -141 -54 -160 -76 -12 -13 -30 -24
-42 -24 -12 0 -25 -4 -28 -10 -3 -6 -14 -10 -23 -10 -9 0 -28 -9 -42 -20 -14
-11 -34 -20 -45 -20 -11 0 -37 -14 -58 -31 -30 -25 -40 -29 -52 -19 -11 10
-24 8 -58 -9 -24 -12 -48 -21 -55 -21 -6 0 -20 -10 -31 -21 -13 -14 -27 -20
-40 -16 -11 3 -28 -1 -38 -9 -10 -7 -33 -14 -50 -14 -18 0 -62 -14 -96 -30
-39 -18 -80 -30 -105 -30 -22 0 -44 -4 -47 -10 -3 -5 -1 -10 4 -10 6 0 11 -4
11 -10 0 -15 -26 -12 -41 6 -8 10 -20 13 -38 8 -14 -3 -57 -13 -96 -21 -38 -7
-92 -18 -120 -24 -27 -6 -90 -12 -138 -12 -54 -1 -90 -6 -95 -14 -5 -8 -71
-11 -233 -11 -124 0 -236 -3 -248 -7 -12 -4 -28 -2 -36 5 -8 6 -19 9 -24 5 -6
-3 -20 -1 -32 6 -12 6 -53 12 -93 14 -139 6 -354 37 -429 62 -27 8 -68 16 -92
17 -24 0 -47 4 -51 8 -4 5 -18 8 -31 8 -13 0 -44 9 -67 20 -24 11 -63 22 -87
26 -40 6 -96 25 -174 59 -107 48 -126 55 -139 55 -7 0 -19 7 -26 15 -7 8 -25
15 -39 15 -15 0 -36 7 -47 15 -10 8 -25 15 -32 15 -8 0 -26 8 -40 18 -15 10
-43 25 -62 32 -19 7 -44 21 -55 30 -11 10 -35 23 -52 31 -18 8 -33 17 -33 21
0 5 -13 8 -29 8 -19 0 -35 8 -44 20 -8 11 -29 25 -48 32 -19 6 -36 14 -39 18
-18 24 -87 59 -106 54 -18 -5 -26 1 -39 25 -8 17 -22 31 -29 31 -8 0 -31 18
-52 40 -23 24 -47 40 -61 40 -13 0 -26 6 -29 14 -3 8 -35 33 -71 56 -35 23
-95 69 -131 101 -36 33 -72 59 -78 59 -6 0 -19 11 -27 24 -9 13 -68 67 -131
120 -64 54 -116 101 -116 106 0 6 -49 60 -110 122 -60 62 -121 129 -135 148
-14 19 -34 39 -43 45 -27 15 -118 123 -164 193 -24 37 -66 87 -110 133 -20 21
-39 47 -43 58 -3 10 -12 22 -20 25 -8 3 -22 24 -31 46 -9 22 -29 50 -45 61
-16 11 -29 29 -29 39 0 10 -20 40 -44 67 -25 27 -48 62 -53 79 -13 47 -66 133
-85 140 -11 3 -18 15 -18 29 0 14 -12 39 -28 57 -28 34 -46 67 -57 105 -3 12
-26 40 -51 61 -31 28 -44 47 -44 66 0 14 -4 34 -8 44 -5 9 -34 69 -66 132 -31
63 -56 120 -56 125 0 6 -10 26 -23 45 -12 19 -29 53 -36 75 -7 22 -26 66 -42
98 -16 32 -29 64 -29 72 0 8 -9 20 -20 28 -12 8 -24 33 -29 63 -5 27 -17 63
-25 79 -9 17 -16 35 -16 41 0 6 -7 17 -15 24 -8 7 -15 25 -15 41 0 15 -4 31
-10 34 -5 3 -10 15 -10 26 0 18 -37 108 -49 119 -3 3 -7 22 -9 43 -1 21 -13
59 -27 85 -14 26 -25 59 -25 75 0 26 -30 128 -49 165 -12 25 -41 146 -41 174
0 13 -4 28 -8 33 -12 14 -32 88 -32 118 0 15 -9 32 -21 41 -12 8 -19 18 -16
23 5 9 -1 55 -23 178 -5 28 -12 66 -15 85 -4 19 -11 45 -17 57 -6 12 -8 29 -4
38 3 9 -1 31 -9 48 -8 18 -17 61 -19 97 -7 97 -18 170 -27 176 -5 3 -9 29 -9
59 0 30 -5 57 -11 61 -6 3 -9 18 -6 33 3 14 0 35 -5 45 -6 11 -12 65 -14 120
-2 56 -8 131 -14 169 -6 37 -13 138 -18 225 -6 139 -7 220 -4 407 1 67 1 117
3 347 0 146 4 198 13 201 7 3 38 0 68 -7 70 -14 101 -47 92 -96 -4 -18 -1 -41
6 -56 10 -18 11 -32 3 -59 -6 -19 -8 -37 -4 -40 4 -2 13 -44 20 -92 27 -195
34 -238 43 -249 4 -6 5 -25 2 -41 -4 -19 3 -59 16 -104 23 -78 42 -173 60
-299 19 -135 59 -259 112 -341 41 -65 125 -159 141 -159 5 0 27 -16 48 -34 21
-19 57 -40 81 -46 24 -6 53 -15 66 -20 102 -44 112 -45 355 -44 125 0 227 -3
227 -7 0 -4 17 -5 39 -2 24 3 41 1 46 -7 5 -8 12 -7 25 5 15 14 25 15 52 6 18
-6 47 -10 63 -10 233 8 286 9 455 7 47 -1 103 0 125 1 22 1 117 0 210 -1 94
-2 175 1 182 5 7 5 21 3 34 -7 26 -18 104 -12 130 11 12 10 23 11 40 4 27 -10
178 -27 194 -22 6 2 26 4 45 3 19 0 38 5 42 11 6 9 10 9 16 -1 6 -9 31 -13 73
-13 35 0 80 -1 99 -3 19 -1 39 0 45 3 5 3 55 6 110 8 123 4 267 27 302 50 43
28 93 76 93 88 0 7 11 28 25 48 13 20 30 56 36 79 7 24 17 50 23 58 22 30 36
60 36 76 0 8 11 49 25 89 13 41 28 94 31 117 4 24 10 48 15 53 4 6 12 38 18
72 5 34 14 71 20 81 6 11 20 59 31 108 11 49 26 109 31 134 6 25 14 61 18 80
7 34 7 34 16 10 4 -14 9 -56 10 -95 1 -38 5 -78 9 -88 5 -10 5 -35 1 -55 -11
-62 -16 -123 -16 -196 0 -39 -5 -76 -11 -83 -9 -11 -9 -16 2 -23 16 -10 23
-87 9 -95 -5 -3 -6 -32 -3 -64 5 -44 3 -64 -9 -82 -10 -15 -20 -67 -26 -134
-27 -298 -26 -287 -46 -365 -9 -36 -20 -105 -25 -155 -7 -86 -20 -151 -34
-173 -3 -6 -1 -23 4 -38 8 -19 8 -30 0 -38 -5 -5 -10 -18 -10 -28 0 -11 -8
-33 -17 -51 -9 -18 -18 -50 -19 -72 -2 -42 -10 -87 -23 -120 -25 -65 -37 -116
-30 -121 17 -10 9 -46 -11 -51 -16 -4 -18 -8 -9 -19 9 -11 8 -18 -1 -29 -6 -8
-9 -23 -6 -33 5 -13 1 -22 -11 -26 -16 -7 -15 -9 7 -26 20 -15 22 -21 11 -33
-14 -17 -12 -235 2 -244 4 -2 7 -26 7 -53 0 -27 5 -52 10 -55 6 -3 10 -17 10
-31 0 -27 12 -31 30 -9 7 8 17 15 23 15 14 0 77 60 77 73 0 5 14 25 30 44 17
18 30 42 30 52 0 10 10 33 23 52 12 19 29 54 36 79 8 25 18 49 23 55 4 5 8 22
8 37 0 16 7 39 16 53 8 13 18 50 20 82 5 53 12 83 34 138 7 20 31 134 35 167
0 10 4 21 8 24 4 4 7 17 7 29 0 11 4 25 9 31 5 5 11 36 14 69 3 33 12 94 20
135 9 41 16 93 16 116 1 22 6 45 13 52 7 7 13 38 13 70 1 31 4 64 8 72 3 8 8
33 11 55 3 22 10 72 17 110 6 39 12 88 14 110 1 22 5 65 9 95 14 106 19 247
20 550 1 315 -3 448 -15 465 -7 11 -15 59 -28 170 -5 39 -12 90 -16 114 l-8
44 56 -5 c81 -7 123 -42 157 -133 4 -11 20 -48 35 -83 24 -58 70 -204 78 -248
2 -11 11 -33 20 -51 9 -18 17 -37 17 -43 0 -7 9 -23 20 -37 15 -20 17 -29 9
-39 -8 -10 -8 -18 -1 -26 5 -7 15 -33 22 -58 6 -25 21 -61 32 -80 11 -19 22
-54 23 -78 2 -24 11 -52 21 -63 9 -10 17 -33 17 -49 0 -17 4 -30 9 -30 4 0 8
-11 8 -24 0 -13 7 -29 15 -36 8 -7 15 -27 15 -44 0 -30 12 -75 45 -166 16 -43
73 -110 95 -110 5 0 10 -7 10 -15 0 -9 8 -19 18 -22 9 -4 49 -28 87 -53 72
-48 116 -61 210 -62 28 0 210 0 405 0 692 2 796 2 860 1 36 -1 79 -1 95 0 17
0 41 1 55 2 14 0 102 0 195 0 395 -1 1294 9 1340 15 116 14 275 110 323 196
34 60 92 202 92 224 0 8 9 32 20 54 11 22 25 63 31 92 5 29 19 69 29 88 20 39
55 188 46 198 -4 3 2 15 13 26 16 19 27 59 36 136 1 14 5 32 8 40 7 20 16 63
27 128 5 29 14 60 21 68 6 8 13 32 15 54 1 22 5 44 9 50 4 6 11 35 16 63 5 29
14 81 20 117 6 36 20 95 31 132 11 36 20 84 20 105 -1 38 15 100 30 117 4 6 8
15 8 22 0 20 81 148 109 171 58 50 104 83 124 89 12 3 36 12 52 19 17 7 59 25
95 40 36 15 81 36 101 46 35 18 171 56 237 66 18 3 35 9 38 14 3 5 15 9 28 9
12 0 26 4 32 9 5 5 23 11 39 14 17 2 33 5 36 6 4 0 12 -6 19 -14z m-8814 -106
c134 -1 149 0 192 6 24 4 48 3 55 -3 16 -13 124 -25 130 -15 7 10 552 9 589
-1 15 -5 33 -4 40 0 19 12 289 12 316 0 16 -7 34 -6 59 3 19 7 38 9 42 5 9
-14 113 -9 143 6 23 11 35 10 78 -4 34 -11 56 -13 68 -7 19 10 107 8 135 -4 9
-4 23 -2 31 4 8 7 35 9 68 6 30 -3 87 1 127 9 42 7 87 10 105 6 18 -4 92 -8
166 -9 125 -1 136 -3 184 -30 30 -16 52 -35 54 -47 4 -27 22 -63 48 -100 18
-25 22 -41 19 -85 -2 -30 -6 -95 -9 -146 -4 -70 -10 -99 -25 -120 -22 -31 -28
-58 -42 -177 -5 -46 -15 -86 -24 -96 -9 -10 -18 -46 -22 -86 -3 -38 -12 -76
-20 -86 -12 -13 -12 -20 -2 -36 10 -17 8 -28 -14 -73 -16 -35 -28 -80 -33
-129 -4 -48 -13 -83 -25 -98 -13 -16 -16 -33 -12 -53 3 -17 1 -40 -4 -52 -6
-12 -16 -42 -22 -67 -7 -25 -19 -68 -28 -96 -8 -29 -13 -56 -10 -61 3 -5 -1
-23 -9 -38 -8 -16 -13 -37 -11 -47 3 -9 -4 -25 -14 -34 -20 -18 -26 -44 -9
-44 6 0 10 -4 10 -10 0 -5 -7 -10 -15 -10 -8 0 -15 -4 -15 -10 0 -5 5 -10 11
-10 6 0 9 -8 7 -17 -2 -10 -12 -18 -23 -18 -12 0 -21 -8 -23 -20 -14 -75 -168
-129 -357 -127 -33 1 -102 1 -154 2 l-93 0 5 28 c6 32 49 147 76 203 11 22 23
54 26 72 4 18 15 55 25 82 30 80 50 152 50 179 0 14 5 28 10 31 6 3 10 22 10
41 0 19 4 42 9 52 13 26 31 112 33 157 0 22 4 47 9 55 31 62 42 474 16 625
-17 104 -40 171 -68 201 -10 11 -19 25 -19 32 0 26 -107 124 -169 154 -56 27
-74 31 -135 30 -39 -1 -75 -7 -80 -12 -6 -6 -19 -10 -31 -10 -36 0 -119 -48
-165 -96 -25 -25 -69 -69 -97 -99 -29 -29 -53 -59 -53 -66 0 -8 -16 -38 -35
-66 -19 -29 -35 -55 -35 -58 0 -3 -13 -23 -29 -43 -15 -20 -38 -64 -51 -97
-12 -33 -30 -76 -39 -95 -10 -19 -23 -55 -30 -80 -6 -25 -21 -74 -33 -110 -12
-36 -25 -85 -29 -110 -4 -25 -13 -76 -19 -115 -22 -131 -16 -383 13 -635 9
-74 22 -129 38 -162 26 -50 24 -76 -3 -83 -13 -3 -75 -4 -138 -2 -63 2 -128 0
-145 -5 -50 -16 -113 -18 -118 -4 -3 8 -23 10 -63 7 -148 -10 -553 -8 -624 4
-146 24 -255 111 -285 225 -3 14 -10 34 -14 45 -13 31 -28 85 -41 145 -7 30
-17 60 -22 67 -5 6 -6 27 -3 47 5 23 2 45 -9 67 -9 18 -16 51 -16 75 0 24 -4
46 -10 49 -5 3 -10 26 -10 50 0 24 -4 47 -10 50 -5 3 -10 26 -10 50 0 24 -5
47 -11 51 -7 4 -9 21 -6 40 3 19 -1 56 -8 82 -8 26 -14 64 -13 83 1 20 -2 40
-5 46 -3 5 -9 61 -13 124 -3 63 -11 119 -16 126 -5 6 -8 47 -7 90 2 43 0 83
-3 89 -10 16 9 150 26 184 9 18 16 41 16 51 0 10 5 21 10 24 6 3 10 15 10 26
0 11 8 23 18 26 9 4 21 12 25 19 11 19 65 41 117 49 25 4 65 16 89 26 39 17
60 19 170 14 104 -5 129 -4 146 9 17 13 21 13 31 1 8 -11 32 -15 80 -16z
m8454 -3029 c0 -5 -2 -10 -4 -10 -3 0 -8 5 -11 10 -3 6 -1 10 4 10 6 0 11 -4
11 -10z"/>
<path d="M12725 7882 c-33 -13 -64 -27 -70 -32 -9 -7 -140 -78 -192 -104 -13
-6 -23 -14 -23 -18 0 -5 -11 -8 -24 -8 -14 0 -28 -4 -31 -10 -3 -5 -14 -10
-23 -10 -9 0 -51 -17 -92 -37 -74 -37 -164 -63 -228 -66 -20 -2 -37 -9 -43
-20 -7 -11 -22 -17 -44 -17 -18 0 -46 -5 -62 -11 -15 -6 -75 -12 -132 -15 -57
-3 -113 -9 -123 -15 -10 -6 -27 -7 -38 -4 -11 3 -30 -1 -44 -10 -23 -15 -25
-15 -35 3 -9 16 -24 21 -73 25 -35 3 -90 10 -122 16 -50 10 -61 10 -68 -3 -4
-8 -16 -12 -26 -10 -33 9 -64 -11 -78 -52 -20 -58 -18 -117 6 -139 11 -10 20
-23 20 -30 0 -11 82 -41 179 -65 62 -16 170 -23 366 -23 197 -1 298 6 338 22
16 6 44 11 63 11 19 0 53 9 75 20 22 12 44 18 49 15 10 -6 97 20 115 35 6 5
27 11 48 13 20 2 45 11 55 20 10 9 25 17 34 17 8 0 32 11 53 25 20 14 51 29
69 32 17 3 42 16 56 28 14 13 41 26 59 30 21 4 50 23 71 45 20 21 50 41 67 44
33 7 87 59 96 91 3 11 10 34 15 52 8 23 6 38 -4 58 -8 15 -14 37 -14 49 0 11
-13 33 -28 48 -25 24 -35 27 -92 26 -43 -1 -85 -10 -125 -26z"/>
</g>
</svg>
